<?xml version="1.0" encoding="UTF-8"?>
<svg id="Livello_2" data-name="Livello 2" xmlns="http://www.w3.org/2000/svg" viewBox="0 0 68.85 10.66">
  <defs>
    <style>
      .cls-1 {
        fill: #fff;
        stroke-width: 0px;
      }
    </style>
  </defs>
  <g id="Livello_1-2">
    <g>
      <path class="cls-1" d="m68.62,9.6h-.46v-1.07h-.46v-1.07h-.46v-1.07h-.69v-1.07h-.46v-1.07h-.23v-1.07h.69v-1.07h.69v-1.07h.69V0h-2.53v1.07h-.69v1.07h-.69v1.07h-.69v1.07h-.69V0h-2.76v8.53h-4.14V0h-2.99v9.6h-.69v-1.07h-.23v-1.07h-.46v-1.07h-.23v-1.07h-.46v-1.07h-.23v-1.07h-.46v-1.07h-.23v-1.07h-.23V0h-3.22v1.07h-.46v1.07h-.23v1.07h-.46v1.07h-.23v1.07h-.46v1.07h-.23v1.07h-.46v1.07h-.23v1.07h-.46v1.07h2.53v-1.07h.23v-1.07h3.45v1.07h.23v1.07h13.12v-2.13h.23v-1.07h.46v-1.07h.69v1.07h.46v1.07h.46v1.07h.46v1.07h3.45v-1.07h-.23Zm-21.87-4.27h.23v-1.07h.46v-1.07h.46v1.07h.23v1.07h.23v1.07h-1.61v-1.07Z"/>
      <polygon class="cls-1" points="43.29 2.13 43.52 2.13 43.75 2.13 43.98 2.13 44.21 2.13 44.44 2.13 44.44 1.07 44.44 0 44.21 0 43.98 0 43.75 0 43.52 0 43.29 0 43.06 0 42.83 0 42.6 0 42.37 0 42.14 0 41.91 0 41.68 0 41.45 0 41.22 0 40.98 0 40.75 0 40.52 0 40.29 0 40.06 0 39.83 0 39.6 0 39.37 0 39.14 0 38.91 0 38.68 0 38.45 0 38.22 0 37.99 0 37.76 0 37.53 0 37.3 0 37.07 0 36.84 0 36.61 0 36.38 0 36.15 0 35.92 0 35.69 0 35.46 0 35.23 0 35 0 34.77 0 34.54 0 34.31 0 34.08 0 33.85 0 33.62 0 33.39 0 33.16 0 32.93 0 32.7 0 32.47 0 32.24 0 32.01 0 31.77 0 31.54 0 31.31 0 31.08 0 30.85 0 30.62 0 30.39 0 30.39 1.07 30.39 2.13 30.39 3.2 30.39 4.27 30.39 5.33 30.39 6.4 30.39 7.46 30.39 8.53 30.39 9.6 30.39 10.66 30.62 10.66 30.85 10.66 31.08 10.66 31.31 10.66 31.54 10.66 31.77 10.66 32.01 10.66 32.24 10.66 32.47 10.66 32.7 10.66 32.93 10.66 33.16 10.66 33.39 10.66 33.62 10.66 33.85 10.66 34.08 10.66 34.31 10.66 34.54 10.66 34.77 10.66 35 10.66 35.23 10.66 35.46 10.66 35.69 10.66 35.92 10.66 36.15 10.66 36.38 10.66 36.61 10.66 36.84 10.66 37.07 10.66 37.3 10.66 37.53 10.66 37.76 10.66 37.99 10.66 37.99 9.6 37.99 8.53 37.76 8.53 37.53 8.53 37.3 8.53 37.07 8.53 36.84 8.53 36.61 8.53 36.38 8.53 36.15 8.53 35.92 8.53 35.69 8.53 35.46 8.53 35.23 8.53 35 8.53 34.77 8.53 34.54 8.53 34.31 8.53 34.08 8.53 33.85 8.53 33.62 8.53 33.39 8.53 33.39 7.46 33.39 6.4 33.62 6.4 33.85 6.4 34.08 6.4 34.31 6.4 34.54 6.4 34.77 6.4 35 6.4 35.23 6.4 35.46 6.4 35.69 6.4 35.92 6.4 36.15 6.4 36.38 6.4 36.61 6.4 36.84 6.4 37.07 6.4 37.07 5.33 37.07 4.27 36.84 4.27 36.61 4.27 36.38 4.27 36.15 4.27 35.92 4.27 35.69 4.27 35.46 4.27 35.23 4.27 35 4.27 34.77 4.27 34.54 4.27 34.31 4.27 34.08 4.27 33.85 4.27 33.62 4.27 33.39 4.27 33.39 3.2 33.39 2.13 33.62 2.13 33.85 2.13 34.08 2.13 34.31 2.13 34.54 2.13 34.77 2.13 35 2.13 35.23 2.13 35.46 2.13 35.69 2.13 35.92 2.13 36.15 2.13 36.38 2.13 36.61 2.13 36.84 2.13 37.07 2.13 37.3 2.13 37.53 2.13 37.76 2.13 37.99 2.13 38.22 2.13 38.45 2.13 38.68 2.13 38.91 2.13 39.14 2.13 39.37 2.13 39.6 2.13 39.6 3.2 39.6 4.27 39.6 5.33 39.6 6.4 39.6 7.46 39.6 8.53 39.6 9.6 39.6 10.66 39.83 10.66 40.06 10.66 40.29 10.66 40.52 10.66 40.75 10.66 40.98 10.66 41.22 10.66 41.45 10.66 41.68 10.66 41.91 10.66 42.14 10.66 42.37 10.66 42.6 10.66 42.6 9.6 42.6 8.53 42.6 7.46 42.6 6.4 42.6 5.33 42.6 4.27 42.6 3.2 42.6 2.13 42.83 2.13 43.06 2.13 43.29 2.13"/>
      <path class="cls-1" d="m29.24,0h-3.68v1.07h-.23v1.07h-.23v1.07h-.23v1.07h-.46v1.07h-.69v-1.07h-.23v-1.07h-.23v-1.07h-.23v-1.07h-.23V0h-4.14v9.6h-.46v-1.07h-.46v-1.07h-.23v-1.07h-.46v-1.07h-.23v-1.07h-.23v-1.07h-.23v-1.07h-.46v-1.07h-.23V0h-3.45v1.07h-.23v1.07h-.46v1.07h-.23v1.07h-.46v1.07h-.23v1.07h-.46v1.07h-.23v1.07h-.23v1.07h-.23v-4.27h-4.61v1.07h1.61v1.07h-.23v1.07h-2.3v-1.07h-.69V3.2h.69v-1.07h1.84v1.07h.69v1.07h1.84v-1.07h.69v-1.07h-.46v-1.07h-1.61V0h-3.91v1.07h-1.61v1.07h-.46v1.07h-.46v1.07h-.23v1.07h-.23v1.07h.23v1.07h.46v1.07h.69v1.07h1.38v1.07h3.68v-1.07h1.38v1.07h3.68v-1.07h.46v-1.07h3.45v1.07h.23v1.07h5.3V3.2h.23v1.07h.46v1.07h.23v1.07h.23v1.07h.23v1.07h.46v1.07h.23v1.07h1.84v-1.07h.23v-1.07h.46v-1.07h.23v-1.07h.23v-1.07h.23v-1.07h.23v-1.07h.46v7.46h2.76V0h-.46ZM12.66,5.33h.46v-1.07h.23v-1.07h.46v1.07h.46v1.07h.23v1.07h-1.84v-1.07Z"/>
    </g>
  </g>
</svg>